PathFileType	4	(X/Y/Z)	25_coords_data.trc
DataRate	CameraRate	NumFrames	NumMarkers	Units	OrigDataRate	OrigDataStartFrame	OrigNumFrames
30.0	30.0	7	21	m	30.0	1	80
Frame#	Time	THUMB_TIP	THUMB_IP	THUMB_MCP	THUMB_CMC	INDEX_TIP	INDEX_DIP	INDEX_PIP	INDEX_MCP	MIDDLE_TIP	MIDDLE_DIP	MIDDLE_PIP	MIDDLE_MCP	RING_TIP	RING_DIP	RING_PIP	RING_MCP	PINKY_TIP	PINKY_DIP	PINKY_PIP	PINKY_MCP	WRIST
X1	Y1	Z1	X2	Y2	Z2	X3	Y3	Z3	X4	Y4	Z4	X5	Y5	Z5	X6	Y6	Z6	X7	Y7	Z7	X8	Y8	Z8	X9	Y9	Z9	X10	Y10	Z10	X11	Y11	Z11	X12	Y12	Z12	X13	Y13	Z13	X14	Y14	Z14	X15	Y15	Z15	X16	Y16	Z16	X17	Y17	Z17	X18	Y18	Z18	X19	Y19	Z19	X20	Y20	Z20	X21	Y21	Z21
0	-2.749317978547796e-18	0.534765406672278	-0.008259903532751411	-0.1472859076694299	0.5163409734771142	-0.013111131296640322	-0.1344404473577161	0.4907208830112988	-0.020253539234724838	-0.1182720530846465	0.47842738855454836	-0.024535932610458278	-0.07560565997464336	0.5709805445506069	0.014971627145088484	-0.1567428448806596	0.5559391793937909	0.020937795941693427	-0.1486088320880864	0.5352071386859487	0.027879583912693295	-0.1361990012732021	0.5005937674755987	0.02283897684961056	-0.11190614413596689	0.5880407049797185	0.013142597531316524	-0.1386018509723772	0.5744095865888974	0.021605425711122006	-0.13020106823417343	0.5512334302686177	0.03219761726998216	-0.11605607596841433	0.5140996647708094	0.02547191723601072	-0.09213963099833566	0.5910243841064882	0.01126905409725698	-0.11883338133238397	0.5776697975841212	0.019306733815266486	-0.10977519588676005	0.5584409100339229	0.0280468013463675	-0.096582732806136	0.5237141376764988	0.021972781343048142	-0.07678681411982796	0.5889831450648629	0.007997184802099766	-0.1047361058649614	0.5759525003357271	0.00972660941864878	-0.0937720104422321	0.5589305007148779	0.011787634183704765	-0.08165525655244638	0.528195378385957	0.008440055071807562	-0.06308028897465884	0.4622830810018609	-0.023011742144276925	-0.051989820119430985
1	0.03333333333333339	0.5348591277321881	-0.008474470004018575	-0.14769183546248676	0.5164342109440967	-0.013022940037331732	-0.13473676457468536	0.4910166588716085	-0.020004031118613708	-0.11818284014700964	0.4780566948333702	-0.025138501401457458	-0.0758087142322233	0.5715102625199676	0.01451921564423031	-0.15697648499399952	0.5564430812060412	0.020177124350728937	-0.14867178052471253	0.5357849342819662	0.027134293442157564	-0.13614785953739394	0.5011616333480914	0.022518148123876536	-0.1117848890936477	0.5880792508936648	0.013360845729000093	-0.1383212418726648	0.5742359593378904	0.02165053831613506	-0.13009662785663811	0.5511825652497622	0.032303680827305836	-0.1157976374847921	0.5138634504655718	0.025732776561748105	-0.09212793512381368	0.5912724395969077	0.011156572867536352	-0.11907363168574836	0.5779068156132796	0.018969380627334886	-0.10983674203410165	0.5586513327288107	0.027611422623953996	-0.09661851719055325	0.523925540638019	0.02168924911576542	-0.07677492732868546	0.5893963075799182	0.007627115960936237	-0.10458301416697374	0.576268531692198	0.009463431761396968	-0.09375298902744755	0.5591531390357267	0.011452975724683179	-0.08175644502373697	0.5283537245974061	0.008025811354441692	-0.06330287990379563	0.4622830810018609	-0.023011742144276925	-0.05198982011943104
2	0.06666666666666676	0.5348722180567781	-0.008650551084154912	-0.14799602044148696	0.5164529407171522	-0.012954318377332408	-0.1349496489393367	0.4911963865402308	-0.01981003027420236	-0.11809955441451747	0.47775303284625703	-0.025602130561096503	-0.07596147406282983	0.5718965387678091	0.014174789330208548	-0.15716602821095915	0.5568140088261698	0.019588870302943096	-0.14872772164031178	0.5362111551777392	0.026549843958522668	-0.13611514457185853	0.5015823370980677	0.022269252689798513	-0.11169880596847376	0.5881065636997035	0.013553267247278233	-0.13811959073555807	0.5740988693088662	0.021702499338435044	-0.130034139964119	0.5511360494398301	0.03238649625333867	-0.11561295195534066	0.5136811899113423	0.025924547971365786	-0.0921283901518416	0.5914602079355615	0.011081457777023962	-0.11927059868818701	0.5780864290742241	0.018717107601307403	-0.10989835825545341	0.5588090919903498	0.027279407963738733	-0.09666010812720038	0.5240843490729138	0.021465023457090338	-0.07678283476974945	0.5897114272565859	0.0073534591132766725	-0.10446953122444746	0.5765092804518573	0.009265312358661904	-0.0937434817692891	0.5593222453288249	0.011196191083538087	-0.08184013980035154	0.528472388316037	0.007705125149931491	-0.06348306400005715	0.4622830810018609	-0.023011742144276925	-0.051989820119430985
3	0.10000000000000014	0.5348167923171757	-0.0087928986835063	-0.14823818113809528	0.5164075773494401	-0.012907233600166879	-0.13511670818475474	0.4912769182489013	-0.019667036936604987	-0.11804113990650428	0.4775163824140888	-0.02593718606877371	-0.07607421384086066	0.5721636783993425	0.013931869493239768	-0.15731774154503703	0.557073029482199	0.01916120700698032	-0.14877804925392363	0.5365084788638216	0.02611582442362337	-0.13609962713394658	0.5018770664500185	0.022083351736481016	-0.11164475988318168	0.5881259335801892	0.013713261079173478	-0.13799206163396266	0.5739979858946147	0.021754884172549338	-0.13000874201003726	0.5510981575813703	0.032445233359942205	-0.11549241163781354	0.5135485567453303	0.026053800872323896	-0.09214021711973269	0.5915968396078113	0.011038404040946692	-0.11942906370069767	0.5782163375958235	0.0185419901193683	-0.10996025375060836	0.5589214486610525	0.027040425408544233	-0.09670643024074743	0.5241977925574381	0.021292991590102117	-0.0768077984963143	0.5899408391444834	0.007162843990713319	-0.10439617520111605	0.576684575797958	0.009122207937238613	-0.0937457115955907	0.5594441976695697	0.01100537785821798	-0.08191207090310276	0.5285576823357463	0.007466498667924593	-0.06362592982276521	0.462283081001861	-0.023011742144276925	-0.051989820119430985
4	0.13333333333333353	0.5347040737231881	-0.008905770826738713	-0.1484447944503796	0.5163080880787255	-0.012881411377135943	-0.13526215456366625	0.49127404235237826	-0.01956941572974724	-0.11801723785320939	0.47734259453137484	-0.026157719442687632	-0.07615557262359007	0.5723317601249918	0.013781187679280604	-0.157437903387594	0.5572379159886748	0.01887860984757761	-0.1488244164962868	0.5366967622898204	0.0258182553464118	-0.13609994565972333	0.5020646767644945	0.021951808350546775	-0.11161923215307312	0.5881389723053031	0.013838376266777752	-0.13793216021079113	0.5739303131777665	0.021803635639056296	-0.1300158069512528	0.5510703475013866	0.032480949210644705	-0.11542723285476547	0.5134600902315054	0.026128015648355207	-0.09216230852120083	0.5916900473560556	0.011021971937360875	-0.11955461337089235	0.5783034143148372	0.018434413602620214	-0.11002288926772569	0.5589949732627835	0.026882787825304177	-0.09675680257522823	0.5242725811140683	0.021166210586140877	-0.07684707977104238	0.5900961275068047	0.007042066153213233	-0.10436149273492401	0.5768035147428374	0.009024681409121493	-0.09376075301289272	0.559525250109014	0.01086948327516124	-0.08197642883546857	0.5286152226241776	0.007298518681345789	-0.06373631195655644	0.462283081001861	-0.023011742144276925	-0.051989820119430985
5	0.1666666666666669	0.5345441308663637	-0.008993178000340607	-0.14863203135393643	0.5161637008869945	-0.012874979488624372	-0.13539982023942265	0.4912023032782453	-0.0195107133579554	-0.11802985577678354	0.4772243801120045	-0.026280251358807183	-0.07621262225741149	0.5724175983934421	0.013711072702212723	-0.15753272861065926	0.557323918626877	0.01872253248247646	-0.148868659014033	0.5367936970463185	0.02564022108685804	-0.13611462360456417	0.5021623379841195	0.02186624198906062	-0.11161845767447576	0.5881460803326705	0.013929284965137567	-0.13793200101138342	0.5738909795590869	0.02184634677614694	-0.1300508694799578	0.551052073255611	0.03249603444011051	-0.11540921446691127	0.5134094688449758	0.026155341973581048	-0.09219331747305504	0.5917464307981303	0.01102663759811262	-0.11965339576083239	0.5783539225473886	0.018383482681333496	-0.11008691505080603	0.559035729447304	0.02679377214188272	-0.09681083032911109	0.5243150447276078	0.02107787427028296	-0.07689793505702908	0.5901883844564157	0.006978177913682715	-0.1043623577640404	0.5768747270448604	0.008963869293822868	-0.09378863769631712	0.5595716250171192	0.010778209947978179	-0.0820360700105619	0.5286501122492431	0.007189851525306712	-0.0638188478574312	0.4622830810018609	-0.023011742144276925	-0.051989820119430985
6	0.20000000000000023	0.5343460092946782	-0.009058944162382843	-0.14880874192473265	0.5159829682452342	-0.012884919938830453	-0.13553619006857226	0.4910751979763992	-0.019483860921134744	-0.11807546390535073	0.47715226888415285	-0.026322828498321127	-0.07625118186763402	0.5724356601452604	0.013708043048157204	-0.15760833331834134	0.5573444915805342	0.01867221070501035	-0.14891272115900062	0.5368154225785917	0.025562634985405452	-0.1361420824846966	0.502186062498255	0.021818472430953584	-0.11163851618931347	0.5881468317288077	0.013988822795742761	-0.13798266672762183	0.5738738690521701	0.021881672710685418	-0.13010958241132625	0.551041444035545	0.03249375349176942	-0.11543056134873692	0.5133897730564143	0.026144380084247243	-0.0922317456287235	0.5917718056049336	0.011046862715360484	-0.11973191545554285	0.5783737091591182	0.018377435325858782	-0.11015309941018286	0.5590494419899253	0.026759962852081376	-0.09686829946265729	0.5243312500271647	0.021021280950976662	-0.07695761110502286	0.5902283891656421	0.006958485641747392	-0.10439436530923968	0.5769065438394243	0.008931374253446811	-0.09382856445790061	0.5595895509688391	0.010721859433162284	-0.08209280969984101	0.5286670958071253	0.007129227432424501	-0.06387802962762823	0.4622830810018609	-0.023011742144276925	-0.05198982011943104
